<?xml version="1.0" standalone="no"?>
<!DOCTYPE svg PUBLIC "-//W3C//DTD SVG 20010904//EN"
 "http://www.w3.org/TR/2001/REC-SVG-20010904/DTD/svg10.dtd">
<svg version="1.0" xmlns="http://www.w3.org/2000/svg"
 width="500.000000pt" height="500.000000pt" viewBox="0 0 500.000000 500.000000"
 preserveAspectRatio="xMidYMid meet">
<metadata>
Created by potrace 1.11, written by Peter Selinger 2001-2013
</metadata>
<g transform="translate(0.000000,500.000000) scale(0.100000,-0.100000)"
fill="#000000" stroke="none">
<path d="M2613 4405 c-42 -18 -55 -45 -59 -129 -9 -198 -44 -301 -139 -412
-48 -56 -79 -157 -88 -284 l-3 -55 -289 0 -288 0 -41 50 c-75 90 -123 132
-192 166 l-68 34 -161 0 c-216 -1 -285 -11 -424 -65 -83 -32 -192 -100 -254
-159 -93 -87 -177 -227 -215 -356 -20 -67 -24 -100 -37 -265 -3 -41 -7 -97
-10 -125 -5 -58 -13 -158 -20 -265 -3 -41 -7 -95 -10 -120 -2 -25 -7 -86 -10
-136 -3 -50 -8 -104 -10 -120 -2 -16 -6 -75 -10 -131 -4 -56 -8 -114 -10 -130
-14 -101 -13 -304 1 -368 23 -108 86 -225 172 -319 161 -177 190 -202 278
-247 l87 -44 131 -2 c148 -3 210 9 314 60 75 36 146 109 185 188 22 46 117
268 190 444 11 28 22 52 23 54 2 2 25 -13 52 -33 173 -127 361 -126 561 2 71
45 163 133 201 192 l31 48 125 -2 126 -1 31 -40 c182 -236 470 -328 717 -229
24 10 45 13 50 8 5 -5 31 -58 58 -119 101 -225 112 -244 175 -310 34 -35 77
-83 96 -105 44 -54 120 -103 201 -130 82 -28 272 -39 350 -20 195 47 364 214
427 422 21 71 20 267 -2 473 -3 22 -7 85 -11 140 -6 108 -9 142 -18 280 -4 50
-9 124 -12 165 -2 41 -7 102 -9 135 -2 33 -7 96 -10 140 -22 314 -23 329 -55
426 -37 111 -94 206 -190 311 -192 212 -288 274 -505 328 -75 18 -121 22 -280
24 l-190 1 -67 -32 c-78 -37 -143 -94 -192 -168 l-35 -52 -311 0 -311 0 6 26
c3 14 34 72 67 129 99 167 119 238 132 467 5 75 -25 122 -85 134 -24 5 -33 13
-36 31 -6 44 -24 77 -46 88 -40 19 -53 20 -84 7z m996 -1363 c22 -2 23 -5 19
-62 -3 -48 -10 -67 -35 -97 -40 -50 -85 -75 -136 -76 -72 -2 -80 5 -75 68 6
66 42 119 104 150 36 19 53 21 123 17z m577 -5 c10 -10 9 -60 -2 -97 -25 -80
-86 -128 -170 -134 -71 -5 -87 23 -63 107 15 56 63 105 118 121 38 11 107 13
117 3z m-2966 -267 l59 0 3 -67 3 -68 68 -1 c37 0 70 -4 74 -7 8 -8 -7 -9
-152 -11 l-110 -1 -5 -115 c-3 -64 -10 -124 -17 -135 -11 -17 -12 -10 -13 48
0 74 4 71 -77 68 l-43 -2 0 69 0 69 -55 -2 c-30 -1 -55 2 -55 7 0 8 87 12 183
9 l47 -2 0 125 c0 78 5 135 13 153 11 26 12 21 15 -54 l3 -83 59 0z m1129
-139 c8 -1 11 -4 8 -8 -4 -3 -43 -7 -87 -8 -44 -1 -78 0 -75 3 7 8 84 18 115
15 14 -1 31 -2 39 -2z m578 -5 c7 -7 -2 -8 -99 -10 -37 -1 -64 1 -60 5 14 14
146 18 159 5z m692 -155 c22 -14 9 -103 -23 -152 -31 -46 -91 -78 -148 -79
-59 0 -68 7 -68 54 1 78 47 146 121 175 31 12 100 13 118 2z m571 -21 c17 -67
-34 -159 -104 -191 -41 -19 -112 -25 -132 -11 -16 11 -10 107 9 136 44 67 99
97 172 93 43 -2 50 -5 55 -27z"/>
</g>
</svg>
